<svg xmlns="http://www.w3.org/2000/svg" width="307.384" height="225.037" viewBox="0 0 307.384 225.037">
  <g id="Group_55" data-name="Group 55" transform="translate(-5840.521 -2181.949)">
    <g id="Group_42" data-name="Group 42" transform="translate(5845.129 2184.668)">
      <g id="Group_45" data-name="Group 45">
        <path id="Subtraction_82" data-name="Subtraction 82" d="M0,0V51.267A28.316,28.316,0,0,0,18.188,43.2a24.434,24.434,0,0,0,0-35.123A28.317,28.317,0,0,0,0,0Z" transform="translate(243.526 134.226) rotate(-30)" fill="#fff" stroke="#000" stroke-linecap="round" stroke-width="4"/>
        <path id="Union_16" data-name="Union 16" d="M.87,89.02,27.813,0H49.366V26.492c36.077-10.295,25.656-5.039,55.021-3.359V.279H125.7l10.425,27.215C146.179,91.644-13.108,157.773.87,89.02Z" transform="translate(67.474 0)" fill="#fff" stroke="#000" stroke-linecap="round" stroke-width="4"/>
        <path id="Union_20" data-name="Union 20" d="M88.826,0H66.151A302.119,302.119,0,0,0,43.883,37.7a236.382,236.382,0,0,0-14.94,36.935c-4.39,14.59-6.414,28.03-6.014,39.948a107.627,107.627,0,0,0,2.278,18.771H0a10.14,10.14,0,0,0,4.844,7.281A19.075,19.075,0,0,0,15.38,143.61a19.081,19.081,0,0,0,10.537-2.975q.479-.322.916-.668a105.35,105.35,0,0,0,4.447,12.668,101.216,101.216,0,0,0,22.22,32.77c21,20.692,50.327,31.63,84.811,31.63a224.941,224.941,0,0,0,30.312-1.933,158.1,158.1,0,0,0,24.964-5.4,121.253,121.253,0,0,0,20.324-8.267A106.4,106.4,0,0,0,230.3,190.89a118.632,118.632,0,0,0,23.813-25.51c2.743-3.887,5.258-7.816,7.627-11.746l33.553,8.991a28.313,28.313,0,0,0-3.09-19.657,24.686,24.686,0,0,0-15.036-11.738,24.191,24.191,0,0,0-2.446-.522c12.243-21.632-3.4-39.062,24.054-39.062V62.428L236.635,27.5,219.835.28h-20.27V23.135c-11.983-.426-21.24-1.079-29.406-1.654-9.012-.636-16.8-1.183-25.188-1.185-15.024,0-31.29,1.8-56.144,6.2V0h0Z" transform="translate(0 1.281)" fill="#fff" stroke="#000" stroke-linecap="round" stroke-width="8"/>
        <path id="Union_20-2" data-name="Union 20" d="M88.826,0H66.151A302.119,302.119,0,0,0,43.883,37.7a236.382,236.382,0,0,0-14.94,36.935c-4.39,14.59-6.414,28.03-6.014,39.948a107.627,107.627,0,0,0,2.278,18.771H0a10.14,10.14,0,0,0,4.844,7.281A19.075,19.075,0,0,0,15.38,143.61a19.081,19.081,0,0,0,10.537-2.975q.479-.322.916-.668a105.35,105.35,0,0,0,4.447,12.668,101.216,101.216,0,0,0,22.22,32.77c21,20.692,50.327,31.63,84.811,31.63a224.941,224.941,0,0,0,30.312-1.933,158.1,158.1,0,0,0,24.964-5.4,121.253,121.253,0,0,0,20.324-8.267A106.4,106.4,0,0,0,230.3,190.89a118.632,118.632,0,0,0,23.813-25.51c2.743-3.887,5.258-7.816,7.627-11.746l33.553,8.991a28.313,28.313,0,0,0-3.09-19.657,24.686,24.686,0,0,0-15.036-11.738,24.191,24.191,0,0,0-2.446-.522c12.243-21.632,4.13-36.771,24.054-39.062V62.428L236.635,27.5,219.835.28h-20.27V23.135c-11.983-.426-21.24-1.079-29.406-1.654-9.012-.636-16.8-1.183-25.188-1.185-15.024,0-31.29,1.8-56.144,6.2V0h0Z" transform="translate(0 1.281)" fill="#fff" stroke="#707070" stroke-linecap="round" stroke-width="1"/>
      </g>
      <path id="Path_3" data-name="Path 3" d="M18,0,0,18" transform="translate(243.404 96.663)" fill="none" stroke="#000" stroke-linecap="round" stroke-width="4"/>
      <line id="Line_11" data-name="Line 11" x2="18" y2="18" transform="translate(243.404 96.663)" fill="none" stroke="#000" stroke-linecap="round" stroke-width="4"/>
    </g>
    <g id="Group_44" data-name="Group 44" transform="translate(740 114.183)">
      <circle id="Ellipse_24" data-name="Ellipse 24" cx="2" cy="2" r="2" transform="translate(5143.635 2220.645) rotate(-45)" fill="#e0e5ec"/>
      <circle id="Ellipse_27" data-name="Ellipse 27" cx="2" cy="2" r="2" transform="translate(5147.878 2230.544) rotate(-45)" fill="#e0e5ec"/>
      <circle id="Ellipse_30" data-name="Ellipse 30" cx="2" cy="2" r="2" transform="translate(5159.898 2224.18) rotate(-45)" fill="#e0e5ec"/>
    </g>
  </g>
</svg>
