<svg xmlns="http://www.w3.org/2000/svg" width="307.384" height="225.044" viewBox="0 0 307.384 225.044">
  <g id="Group_60" data-name="Group 60" transform="translate(-6254.521 -2197.593)">
    <g id="Group_51" data-name="Group 51">
      <path id="Union_16" data-name="Union 16" d="M1.13,29.153l34.989,89.02h27.99V91.681C110.96,101.976-4.54-31.7,1.13,29.153Z" transform="matrix(0.259, 0.966, -0.966, 0.259, 6373.036, 2254.719)" fill="#fff" stroke="#000" stroke-width="4"/>
      <path id="Union_16-2" data-name="Union 16" d="M1.777,89.02,36.766,0h27.99V26.492C111.607,16.2-16.375,157.773,1.777,89.02Z" transform="translate(6539.56 2354.84) rotate(120)" fill="#fff" stroke="#000" stroke-width="4"/>
      <g id="Group_45" data-name="Group 45" transform="translate(1446.089 -3145.7)">
        <path id="Union_16-3" data-name="Union 16" d="M1.13,29.153l34.989,89.02h27.99V91.681c46.851,10.295,33.318,5.039,71.453,3.359v22.854H163.24l13.538-27.215C189.834,26.529-17.023-39.6,1.13,29.153Z" transform="translate(4839.725 5447.438)" fill="#fff" stroke="#000" stroke-width="4"/>
        <path id="Union_20" data-name="Union 20" d="M88.826,217.035H66.151a302.119,302.119,0,0,1-22.268-37.7A236.382,236.382,0,0,1,28.943,142.4c-4.39-14.59-6.414-28.03-6.014-39.948a107.627,107.627,0,0,1,2.278-18.771H0A10.14,10.14,0,0,1,4.844,76.4,19.075,19.075,0,0,1,15.38,73.425,19.081,19.081,0,0,1,25.917,76.4q.479.322.916.668A105.35,105.35,0,0,1,31.28,64.4,101.216,101.216,0,0,1,53.5,31.63C74.5,10.938,103.827,0,138.311,0a224.941,224.941,0,0,1,30.312,1.933,158.1,158.1,0,0,1,24.964,5.4A121.252,121.252,0,0,1,213.911,15.6,106.4,106.4,0,0,1,230.3,26.145a118.632,118.632,0,0,1,23.813,25.51c2.743,3.887,5.258,7.816,7.627,11.746l33.553-8.991a28.313,28.313,0,0,1-3.09,19.657,24.686,24.686,0,0,1-15.036,11.738,24.2,24.2,0,0,1-2.446.522c12.243,21.632-3.4,39.062,24.054,39.062v29.218l-62.14,34.933-16.8,27.215h-20.27V193.9c-11.983.426-21.24,1.079-29.406,1.654-9.012.636-16.8,1.183-25.188,1.185-15.024,0-31.29-1.8-56.144-6.2v26.493h0ZM247.953,116.9a10.254,10.254,0,1,0,10.254-10.254A10.254,10.254,0,0,0,247.953,116.9Z" transform="translate(4813.04 5347.295)" fill="#fff" stroke="#000" stroke-width="8"/>
        <path id="Union_20-2" data-name="Union 20" d="M88.826,217.035H66.151a302.119,302.119,0,0,1-22.268-37.7A236.382,236.382,0,0,1,28.943,142.4c-4.39-14.59-6.414-28.03-6.014-39.948a107.627,107.627,0,0,1,2.278-18.771H0A10.14,10.14,0,0,1,4.844,76.4,19.075,19.075,0,0,1,15.38,73.425,19.081,19.081,0,0,1,25.917,76.4q.479.322.916.668A105.35,105.35,0,0,1,31.28,64.4,101.216,101.216,0,0,1,53.5,31.63C74.5,10.938,103.827,0,138.311,0a224.941,224.941,0,0,1,30.312,1.933,158.1,158.1,0,0,1,24.964,5.4A121.252,121.252,0,0,1,213.911,15.6,106.4,106.4,0,0,1,230.3,26.145a118.632,118.632,0,0,1,23.813,25.51c2.743,3.887,5.258,7.816,7.627,11.746l33.553-8.991a28.313,28.313,0,0,1-3.09,19.657,24.686,24.686,0,0,1-15.036,11.738,24.2,24.2,0,0,1-2.446.522c12.243,21.632,4.13,36.771,24.054,39.062v29.218l-62.14,34.933-16.8,27.215h-20.27V193.9c-11.983.426-21.24,1.079-29.406,1.654-9.012.636-16.8,1.183-25.188,1.185-15.024,0-31.29-1.8-56.144-6.2v26.493h0ZM247.953,116.9a10.254,10.254,0,1,0,10.254-10.254A10.254,10.254,0,0,0,247.953,116.9Z" transform="translate(4813.04 5347.295)" fill="#fff"/>
        <path id="Path_4" data-name="Path 4" d="M5095.816,5510.966s-8.373,2.537-8.88,0,1.057-5.38-2.6-7.173-6.891,2.181-12.038,0-3.5-6.507-8.989-8.148-12.78,3.43-15.825.893-7.23-7.646-4.693-3.079,3.362,8.183,7.1,10.911,4.567-1.649,7.865,0,2.284,6.6,5.329,6.6,10.4-4.06,14.716,2.791-7.524,10.318-6.509,11.587,9.046,2.622,18.18-3.468Z"/>
        <path id="Subtraction_82" data-name="Subtraction 82" d="M0,40.3V0A22.257,22.257,0,0,1,14.3,6.345a19.206,19.206,0,0,1,0,27.607A22.258,22.258,0,0,1,0,40.3Z" transform="translate(5072.825 5372.738) rotate(60)" fill="#fff"/>
      </g>
      <circle id="Ellipse_33" data-name="Ellipse 33" cx="6.5" cy="6.5" r="6.5" transform="translate(6491 2286)"/>
      <circle id="Ellipse_34" data-name="Ellipse 34" cx="6.5" cy="6.5" r="6.5" transform="translate(6436 2364)"/>
      <circle id="Ellipse_35" data-name="Ellipse 35" cx="6.5" cy="6.5" r="6.5" transform="translate(6363 2364)"/>
      <path id="Path_5" data-name="Path 5" d="M6392.775,2382.519a27.1,27.1,0,0,0,11.149,2.787c5.853,0,12.264-2.787,12.264-2.787" fill="none" stroke="#000" stroke-linecap="round" stroke-width="4"/>
      <g id="Group_45-2" data-name="Group 45" transform="translate(1323.14 106.183)">
        <circle id="Ellipse_24" data-name="Ellipse 24" cx="2" cy="2" r="2" transform="translate(5143.635 2220.645) rotate(-45)" fill="#e0e5ec"/>
        <circle id="Ellipse_27" data-name="Ellipse 27" cx="2" cy="2" r="2" transform="translate(5147.878 2230.544) rotate(-45)" fill="#e0e5ec"/>
        <circle id="Ellipse_30" data-name="Ellipse 30" cx="2" cy="2" r="2" transform="translate(5159.898 2224.18) rotate(-45)" fill="#e0e5ec"/>
      </g>
      <g id="Group_46" data-name="Group 46" transform="translate(1149.14 98.405)">
        <circle id="Ellipse_24-2" data-name="Ellipse 24" cx="2" cy="2" r="2" transform="translate(5143.635 2220.645) rotate(-45)" fill="#e0e5ec"/>
        <circle id="Ellipse_27-2" data-name="Ellipse 27" cx="2" cy="2" r="2" transform="translate(5147.878 2230.544) rotate(-45)" fill="#e0e5ec"/>
        <circle id="Ellipse_30-2" data-name="Ellipse 30" cx="2" cy="2" r="2" transform="translate(5159.898 2224.18) rotate(-45)" fill="#e0e5ec"/>
      </g>
      <g id="Group_47" data-name="Group 47" transform="translate(1272.553 -7.595)">
        <circle id="Ellipse_24-3" data-name="Ellipse 24" cx="2" cy="2" r="2" transform="translate(5143.635 2220.645) rotate(-45)" fill="#e0e5ec"/>
        <circle id="Ellipse_27-3" data-name="Ellipse 27" cx="2" cy="2" r="2" transform="translate(5147.878 2230.544) rotate(-45)" fill="#e0e5ec"/>
        <circle id="Ellipse_30-3" data-name="Ellipse 30" cx="2" cy="2" r="2" transform="translate(5159.898 2224.18) rotate(-45)" fill="#e0e5ec"/>
      </g>
    </g>
  </g>
</svg>
