<svg xmlns="http://www.w3.org/2000/svg" width="307.384" height="225.037" viewBox="0 0 307.384 225.037">
  <g id="Group_53" data-name="Group 53" transform="translate(-7115.521 -2197.593)">
    <g id="Group_49" data-name="Group 49" transform="translate(2641 -1.555)">
      <g id="Group_45" data-name="Group 45" transform="translate(-333.911 -3144.146)">
        <path id="Subtraction_82" data-name="Subtraction 82" d="M0,51.267V0A28.316,28.316,0,0,1,18.188,8.072a24.434,24.434,0,0,1,0,35.123A28.317,28.317,0,0,1,0,51.267Z" transform="translate(5082.199 5386.986) rotate(30)" fill="#fff" stroke="#000" stroke-width="4"/>
        <path id="Union_16" data-name="Union 16" d="M.87,29.153l26.943,89.02H49.366V91.681c36.077,10.295,25.656,5.039,55.021,3.359v22.854H125.7l10.425-27.215C146.179,26.529-13.108-39.6.87,29.153Z" transform="translate(4880.514 5447.438)" fill="#fff" stroke="#000" stroke-width="4"/>
        <path id="Union_20" data-name="Union 20" d="M88.826,217.035H66.151a302.119,302.119,0,0,1-22.268-37.7A236.382,236.382,0,0,1,28.943,142.4c-4.39-14.59-6.414-28.03-6.014-39.948a107.627,107.627,0,0,1,2.278-18.771H0A10.14,10.14,0,0,1,4.844,76.4,19.075,19.075,0,0,1,15.38,73.425,19.081,19.081,0,0,1,25.917,76.4q.479.322.916.668A105.35,105.35,0,0,1,31.28,64.4,101.216,101.216,0,0,1,53.5,31.63C74.5,10.938,103.827,0,138.311,0a224.941,224.941,0,0,1,30.312,1.933,158.1,158.1,0,0,1,24.964,5.4A121.252,121.252,0,0,1,213.911,15.6,106.4,106.4,0,0,1,230.3,26.145a118.632,118.632,0,0,1,23.813,25.51c2.743,3.887,5.258,7.816,7.627,11.746l33.553-8.991a28.313,28.313,0,0,1-3.09,19.657,24.686,24.686,0,0,1-15.036,11.738,24.2,24.2,0,0,1-2.446.522c12.243,21.632-3.4,39.062,24.054,39.062v29.218l-62.14,34.933-16.8,27.215h-20.27V193.9c-11.983.426-21.24,1.079-29.406,1.654-9.012.636-16.8,1.183-25.188,1.185-15.024,0-31.29-1.8-56.144-6.2v26.493h0ZM247.953,116.9a10.254,10.254,0,1,0,10.254-10.254A10.254,10.254,0,0,0,247.953,116.9Z" transform="translate(4813.04 5347.295)" fill="#fff" stroke="#000" stroke-width="8"/>
        <path id="Union_20-2" data-name="Union 20" d="M88.826,217.035H66.151a302.119,302.119,0,0,1-22.268-37.7A236.382,236.382,0,0,1,28.943,142.4c-4.39-14.59-6.414-28.03-6.014-39.948a107.627,107.627,0,0,1,2.278-18.771H0A10.14,10.14,0,0,1,4.844,76.4,19.075,19.075,0,0,1,15.38,73.425,19.081,19.081,0,0,1,25.917,76.4q.479.322.916.668A105.35,105.35,0,0,1,31.28,64.4,101.216,101.216,0,0,1,53.5,31.63C74.5,10.938,103.827,0,138.311,0a224.941,224.941,0,0,1,30.312,1.933,158.1,158.1,0,0,1,24.964,5.4A121.252,121.252,0,0,1,213.911,15.6,106.4,106.4,0,0,1,230.3,26.145a118.632,118.632,0,0,1,23.813,25.51c2.743,3.887,5.258,7.816,7.627,11.746l33.553-8.991a28.313,28.313,0,0,1-3.09,19.657,24.686,24.686,0,0,1-15.036,11.738,24.2,24.2,0,0,1-2.446.522c12.243,21.632,4.13,36.771,24.054,39.062v29.218l-62.14,34.933-16.8,27.215h-20.27V193.9c-11.983.426-21.24,1.079-29.406,1.654-9.012.636-16.8,1.183-25.188,1.185-15.024,0-31.29-1.8-56.144-6.2v26.493h0ZM247.953,116.9a10.254,10.254,0,1,0,10.254-10.254A10.254,10.254,0,0,0,247.953,116.9Z" transform="translate(4813.04 5347.295)" fill="#fff"/>
      </g>
      <circle id="Ellipse_25" data-name="Ellipse 25" cx="2" cy="2" r="2" transform="translate(4517.635 2340.645) rotate(-45)" fill="#e0e5ec"/>
      <circle id="Ellipse_28" data-name="Ellipse 28" cx="2" cy="2" r="2" transform="translate(4521.878 2350.544) rotate(-45)" fill="#e0e5ec"/>
      <circle id="Ellipse_31" data-name="Ellipse 31" cx="2" cy="2" r="2" transform="translate(4533.898 2344.18) rotate(-45)" fill="#e0e5ec"/>
    </g>
    <ellipse id="Ellipse_40" data-name="Ellipse 40" cx="45" cy="45" rx="45" ry="45" transform="translate(7216.099 2303)"/>
    <g id="Group_50" data-name="Group 50" transform="translate(7309 2353.801) rotate(138)">
      <g id="Group_45-2" data-name="Group 45" transform="translate(0 0)">
        <path id="Union_20-3" data-name="Union 20" d="M19.593,0h-5A66.639,66.639,0,0,0,9.679,8.316a52.139,52.139,0,0,0-3.3,8.147,27.729,27.729,0,0,0-1.327,8.811,23.74,23.74,0,0,0,.5,4.14H0A2.237,2.237,0,0,0,1.068,31.02a4.207,4.207,0,0,0,2.324.656,4.209,4.209,0,0,0,2.324-.656q.106-.071.2-.147A23.238,23.238,0,0,0,6.9,33.667,22.325,22.325,0,0,0,11.8,40.9c4.632,4.564,11.1,6.977,18.707,6.977a49.616,49.616,0,0,0,6.686-.426A34.873,34.873,0,0,0,42.7,46.255a26.745,26.745,0,0,0,4.483-1.823A23.469,23.469,0,0,0,50.8,42.105a26.167,26.167,0,0,0,5.253-5.627c.605-.857,1.16-1.724,1.682-2.591l7.4,1.983a6.245,6.245,0,0,0-.682-4.336,5.445,5.445,0,0,0-3.317-2.589,5.337,5.337,0,0,0-.54-.115c2.7-4.771.911-8.111,5.306-8.616V13.77L52.2,6.065l-3.706-6H44.019V5.1c-2.643-.094-4.685-.238-6.486-.365-1.988-.14-3.706-.261-5.556-.261A70.028,70.028,0,0,0,19.593,5.844V0h0Zm35.1,22.087a2.262,2.262,0,1,1,2.262,2.262,2.262,2.262,0,0,1-2.262-2.262Z" transform="translate(65.902 47.873) rotate(180)" fill="#fff"/>
      </g>
    </g>
    <path id="Path_6" data-name="Path 6" d="M7291.877,2352.522s-3.349-3.118-2.771-7.391,2.974-10.712-2.194-17.439-19.518-3.7-20.21-12.011,6.446-8.836,6.446-8.836" transform="translate(-39.134 0)" fill="none" stroke="#fff" stroke-width="4"/>
    <ellipse id="Ellipse_41" data-name="Ellipse 41" cx="3.5" cy="5" rx="3.5" ry="5" transform="translate(7282 2336)" fill="#fff"/>
    <line id="Line_12" data-name="Line 12" x1="3" y2="3" transform="translate(7283.5 2339.5)" fill="none" stroke="#000" stroke-linecap="round" stroke-width="2"/>
  </g>
</svg>
