<svg xmlns="http://www.w3.org/2000/svg" width="93.482" height="67.908" viewBox="0 0 93.482 67.908">
  <g id="Group_81" data-name="Group 81" transform="translate(-4479.129 -2359.277)">
    <g id="Group_45" data-name="Group 45" transform="translate(-333.911 -3144.146)">
      <path id="Union_20" data-name="Union 20" d="M27.792,67.906H20.7a94.529,94.529,0,0,1-6.967-11.8A73.96,73.96,0,0,1,9.056,44.554a39.334,39.334,0,0,1-1.882-12.5,33.675,33.675,0,0,1,.713-5.873H0A3.173,3.173,0,0,1,1.516,23.9a5.968,5.968,0,0,1,3.3-.931,5.97,5.97,0,0,1,3.3.931q.15.1.287.209a32.963,32.963,0,0,1,1.391-3.964A31.669,31.669,0,0,1,16.739,9.9C23.31,3.421,32.486,0,43.275,0A70.381,70.381,0,0,1,52.76.6a49.467,49.467,0,0,1,7.811,1.69A37.938,37.938,0,0,1,66.93,4.88a33.291,33.291,0,0,1,5.128,3.3,37.118,37.118,0,0,1,7.451,7.982c.858,1.216,1.645,2.446,2.386,3.675l10.5-2.813a8.859,8.859,0,0,1-.967,6.15,7.724,7.724,0,0,1-4.7,3.673,7.571,7.571,0,0,1-.765.163c3.831,6.768,1.292,11.505,7.526,12.222v9.142L74.04,59.3l-5.256,8.515H62.441V60.667c-3.749.133-6.646.338-9.2.518-2.82.2-5.256.37-7.881.371a99.336,99.336,0,0,1-17.567-1.94V67.9h0ZM77.581,36.575a3.208,3.208,0,1,0,3.208-3.208,3.208,3.208,0,0,0-3.208,3.208Z" transform="translate(4813.04 5503.424)"/>
    </g>
  </g>
</svg>
