<svg xmlns="http://www.w3.org/2000/svg" width="24.002" height="24" viewBox="0 0 24.002 24">
  <path id="github" d="M12,0A12.156,12.156,0,0,0,0,12.3,12.282,12.282,0,0,0,8.207,23.978c.6.114.793-.268.793-.592V21.1c-3.338.744-4.033-1.452-4.033-1.452a3.238,3.238,0,0,0-1.333-1.8c-1.089-.764.083-.747.083-.747a2.527,2.527,0,0,1,1.839,1.268,2.519,2.519,0,0,0,3.492,1.022,2.635,2.635,0,0,1,.762-1.645c-2.665-.313-5.467-1.368-5.467-6.081a4.829,4.829,0,0,1,1.236-3.3A4.529,4.529,0,0,1,5.7,5.1s1-.327,3.3,1.264a11.1,11.1,0,0,1,6.009,0C17.3,4.773,18.3,5.1,18.3,5.1a4.525,4.525,0,0,1,.118,3.256,4.816,4.816,0,0,1,1.235,3.3c0,4.726-2.807,5.766-5.479,6.071A2.98,2.98,0,0,1,15,20.01v3.376c0,.327.192.712.8.591A12.283,12.283,0,0,0,24,12.3,12.155,12.155,0,0,0,12,0Z" transform="translate(0.001)" fill="#000" fill-rule="evenodd"/>
</svg>
