<svg xmlns="http://www.w3.org/2000/svg" width="24" height="24" viewBox="0 0 24 24">
  <path id="instagram" d="M12,0A12,12,0,1,1,0,12,12,12,0,0,1,12,0Zm0,4.5c-2.037,0-2.292.009-3.092.045a5.506,5.506,0,0,0-1.821.349A3.835,3.835,0,0,0,4.894,7.087a5.506,5.506,0,0,0-.349,1.821C4.509,9.708,4.5,9.963,4.5,12s.009,2.292.045,3.092a5.506,5.506,0,0,0,.349,1.821,3.835,3.835,0,0,0,2.193,2.193,5.507,5.507,0,0,0,1.821.349c.8.037,1.055.045,3.092.045s2.292-.009,3.092-.045a5.506,5.506,0,0,0,1.821-.349,3.835,3.835,0,0,0,2.194-2.193,5.506,5.506,0,0,0,.349-1.821c.037-.8.045-1.055.045-3.092s-.009-2.292-.045-3.092a5.506,5.506,0,0,0-.349-1.821,3.835,3.835,0,0,0-2.194-2.193,5.505,5.505,0,0,0-1.821-.349C14.292,4.509,14.037,4.5,12,4.5Zm0,1.351c2,0,2.24.008,3.031.044a4.15,4.15,0,0,1,1.393.258,2.484,2.484,0,0,1,1.423,1.423A4.149,4.149,0,0,1,18.1,8.969c.036.791.044,1.028.044,3.031s-.008,2.24-.044,3.031a4.149,4.149,0,0,1-.258,1.393,2.484,2.484,0,0,1-1.423,1.423,4.149,4.149,0,0,1-1.393.258c-.791.036-1.028.044-3.031.044s-2.24-.008-3.031-.044a4.149,4.149,0,0,1-1.393-.258,2.484,2.484,0,0,1-1.423-1.423A4.15,4.15,0,0,1,5.9,15.03C5.859,14.24,5.851,14,5.851,12s.008-2.24.044-3.031a4.15,4.15,0,0,1,.258-1.393A2.484,2.484,0,0,1,7.577,6.153,4.15,4.15,0,0,1,8.969,5.9C9.76,5.859,10,5.851,12,5.851Zm0,2.3A3.851,3.851,0,1,0,15.851,12,3.851,3.851,0,0,0,12,8.151ZM12,14.5A2.5,2.5,0,1,1,14.5,12,2.5,2.5,0,0,1,12,14.5ZM16.9,8a.9.9,0,1,1-.9-.9A.9.9,0,0,1,16.9,8Z" fill="#000" fill-rule="evenodd"/>
</svg>
