<svg xmlns="http://www.w3.org/2000/svg" width="24" height="24" viewBox="0 0 24 24">
  <path id="Path_23" data-name="Path 23" d="M12,0A12,12,0,1,0,24,12,12,12,0,0,0,12,0ZM5.921,12.4l.05-.082L9.094,7.438a.108.108,0,0,1,.187.014,6.657,6.657,0,0,1,.761,3.528,5.428,5.428,0,0,1-.614,1.342c-.036.067-.074.134-.118.2a.106.106,0,0,1-.089.046H6.012A.106.106,0,0,1,5.921,12.4Zm13.913,1.68a.109.109,0,0,1-.065.1,3.842,3.842,0,0,0-1.414.962c-.878,1.222-1.548,2.969-3.048,2.969H9.053A4.019,4.019,0,0,1,5.04,14.088v-.072a.107.107,0,0,1,.108-.106H8.633a.12.12,0,0,1,.115.132,1.173,1.173,0,0,0,.125.67,1.225,1.225,0,0,0,1.1.682H11.7V14.047H9.991a.11.11,0,0,1-.089-.173c.019-.029.038-.058.062-.091.161-.23.391-.586.622-.991a7.968,7.968,0,0,0,.43-.859c.024-.053.043-.108.065-.161.034-.094.067-.182.091-.269s.046-.151.065-.223a3.5,3.5,0,0,0,.082-.787c0-.108,0-.221-.014-.326s-.019-.235-.034-.353-.029-.206-.048-.312c-.026-.156-.06-.312-.1-.468l-.014-.06c-.029-.108-.055-.209-.089-.317-.1-.336-.209-.665-.329-.972-.043-.122-.091-.24-.142-.355-.072-.178-.146-.338-.214-.49-.036-.07-.065-.132-.094-.2s-.067-.144-.1-.214c-.024-.053-.053-.1-.072-.151L9.857,5.89a.069.069,0,0,1,.077-.1l1.32.358h.01l.173.05.192.053.07.019V5.486a.682.682,0,0,1,.679-.686.661.661,0,0,1,.478.2.69.69,0,0,1,.2.485V6.65l.142.038a.2.2,0,0,1,.031.017c.034.024.084.062.146.11s.1.086.166.137c.127.1.281.235.446.386.043.038.086.077.127.118.214.2.454.432.684.691.065.074.127.146.192.226s.132.156.19.233c.079.1.161.211.235.324.034.053.074.108.106.161a5.024,5.024,0,0,1,.257.434c.034.067.067.142.1.214a2.971,2.971,0,0,1,.2.6.65.65,0,0,1,.029.132v.01a1.109,1.109,0,0,1,.024.185,2.057,2.057,0,0,1-.034.617c-.019.086-.043.168-.072.257s-.06.17-.1.254a3.452,3.452,0,0,1-.264.5c-.034.06-.074.122-.113.182s-.089.122-.127.18c-.055.074-.113.151-.173.221a2.342,2.342,0,0,1-.166.209c-.082.1-.161.19-.245.278a2.082,2.082,0,0,1-.156.17c-.053.06-.108.113-.156.161-.084.084-.151.146-.209.2l-.137.122a.1.1,0,0,1-.072.029H13.054v1.346h1.322a1.23,1.23,0,0,0,.8-.3,9.763,9.763,0,0,0,.816-.8.094.094,0,0,1,.05-.031l3.65-1.056a.107.107,0,0,1,.137.1v.773Z" fill="#fff"/>
</svg>
