<svg xmlns="http://www.w3.org/2000/svg" width="77" height="131" viewBox="0 0 77 131">
  <g id="Group_245" data-name="Group 245" transform="translate(0.082)">
    <path id="Subtraction_17" data-name="Subtraction 17" d="M77,131h0L0,131V0H77V131ZM16.019,94.913v26.613h7.234V94.913h9.3V87.462H6.716v7.451Zm47.533-38.4v23.5h7.234V45.946H63.552v.028l-8.25,8.5-8.282-8.531H39.785V80.012h7.234V56.487l8.28,8.527.241-.249,8.009-8.247ZM16.017,53.4V80.012h7.234V53.4h9.3V45.946H6.716V53.4Z" transform="translate(-0.082)"/>
    <path id="Subtraction_9" data-name="Subtraction 9" d="M12.9,26.614a12.488,12.488,0,0,1-5.023-1.046,12.847,12.847,0,0,1-4.1-2.852,13.294,13.294,0,0,1-2.765-4.23,13.735,13.735,0,0,1,0-10.359A13.294,13.294,0,0,1,3.78,3.9a12.847,12.847,0,0,1,4.1-2.852,12.585,12.585,0,0,1,10.045,0,12.847,12.847,0,0,1,4.1,2.852,13.294,13.294,0,0,1,2.765,4.23,13.735,13.735,0,0,1,0,10.359,13.294,13.294,0,0,1-2.765,4.23,12.847,12.847,0,0,1-4.1,2.852A12.488,12.488,0,0,1,12.9,26.614Zm0-19.162a5.775,5.775,0,0,0-5.678,5.855A5.775,5.775,0,0,0,12.9,19.162a5.775,5.775,0,0,0,5.678-5.855A5.775,5.775,0,0,0,12.9,7.452Z" transform="translate(39.744 95.484)" fill="#ff3636"/>
    <rect id="Rectangle_34" data-name="Rectangle 34" width="7.452" height="7.226" rx="3.613" transform="translate(70.712 114.646) rotate(90)" fill="#ff3636"/>
    <g id="Group_26" data-name="Group 26" transform="translate(25.065 9.706)">
      <path id="Path_34" data-name="Path 34" d="M0,0,7.339.113l.516,33.55L.516,33.55Z" transform="translate(5.554 29.358) rotate(-135)" fill="#ff3636"/>
      <path id="Path_35" data-name="Path 35" d="M.516.113,7.855,0,7.339,33.55,0,33.663Z" transform="translate(0 5.554) rotate(-45)" fill="#ff3636"/>
    </g>
  </g>
</svg>
