<svg xmlns="http://www.w3.org/2000/svg" width="33.719" height="37.473" viewBox="0 0 33.719 37.473">
  <path id="Path_15" data-name="Path 15" d="M27.755,4.628a.87.87,0,0,1-.431-.112A21.438,21.438,0,0,0,16.888,1.874,21.436,21.436,0,0,0,6.451,4.516a.939.939,0,0,1-.9-1.649,23.84,23.84,0,0,1,22.634-.019A.917.917,0,0,1,28.579,4.1a.918.918,0,0,1-.824.525ZM.943,14.465A.976.976,0,0,1,.4,14.3a.934.934,0,0,1-.225-1.312A19.372,19.372,0,0,1,7.2,6.858a21.628,21.628,0,0,1,19.318-.019,19.446,19.446,0,0,1,7.026,6.089.941.941,0,0,1-1.536,1.087,17.59,17.59,0,0,0-6.352-5.509,19.743,19.743,0,0,0-17.613.019,17.775,17.775,0,0,0-6.37,5.546.817.817,0,0,1-.731.393ZM12.653,37.08A.879.879,0,0,1,12,36.8a18.941,18.941,0,0,1-3.766-4.946,16.632,16.632,0,0,1-1.967-8.132,10.377,10.377,0,0,1,10.605-10.1,10.377,10.377,0,0,1,10.6,10.1.937.937,0,0,1-1.874,0A8.5,8.5,0,0,0,16.869,15.5a8.5,8.5,0,0,0-8.731,8.225A14.679,14.679,0,0,0,9.88,30.934a17.735,17.735,0,0,0,3.466,4.534.962.962,0,0,1,0,1.33,1.028,1.028,0,0,1-.693.281Zm13.434-3.466a10.09,10.09,0,0,1-5.808-1.668,9.976,9.976,0,0,1-4.459-8.225.937.937,0,0,1,1.874,0,8.059,8.059,0,0,0,3.635,6.67,8.216,8.216,0,0,0,4.759,1.33,12.383,12.383,0,0,0,1.949-.187.941.941,0,1,1,.319,1.855,12.8,12.8,0,0,1-2.267.225Zm-3.766,3.86a1.1,1.1,0,0,1-.244-.037,14.619,14.619,0,0,1-6.97-3.935,13.671,13.671,0,0,1-4.066-9.781,5.65,5.65,0,0,1,5.771-5.509,5.65,5.65,0,0,1,5.771,5.509,3.907,3.907,0,0,0,7.794,0c0-7.064-6.089-12.8-13.584-12.8A13.679,13.679,0,0,0,4.409,18.474,12.053,12.053,0,0,0,3.3,23.721a18.62,18.62,0,0,0,1.255,6.764.914.914,0,0,1-.543,1.2.929.929,0,0,1-1.2-.543,20.874,20.874,0,0,1-1.368-7.42A14.076,14.076,0,0,1,2.723,17.65,15.55,15.55,0,0,1,16.794,9.031c8.525,0,15.458,6.577,15.458,14.671a5.777,5.777,0,0,1-11.542,0,3.773,3.773,0,0,0-3.9-3.635,3.773,3.773,0,0,0-3.9,3.635,11.8,11.8,0,0,0,3.5,8.45,12.741,12.741,0,0,0,6.127,3.466.93.93,0,0,1,.656,1.143A.914.914,0,0,1,22.321,37.473Z" fill="#2d2d2d"/>
</svg>
