<svg xmlns="http://www.w3.org/2000/svg" width="282.08" height="96.944" viewBox="0 0 282.08 96.944">
  <g id="Group_41" data-name="Group 41" transform="translate(-4713.568 -135.529)">
    <g id="Group_15" data-name="Group 15" transform="translate(4945.035 232.502) rotate(-120)">
      <g id="Group_48" data-name="Group 48">
        <circle id="Ellipse_873" data-name="Ellipse 873" cx="11.112" cy="11.112" r="11.112" transform="translate(0.068 0)" fill="#e0e5ec"/>
        <rect id="Rectangle_54" data-name="Rectangle 54" width="7.408" height="43.434" rx="3.704" transform="translate(0 9.011)" fill="#e0e5ec"/>
        <rect id="Rectangle_54-2" data-name="Rectangle 54" width="7.408" height="53.708" rx="3.704" transform="translate(7.408 9.011)" fill="#e0e5ec"/>
        <rect id="Rectangle_54-3" data-name="Rectangle 54" width="7.408" height="29.632" rx="3.704" transform="translate(14.816 9.011)" fill="#e0e5ec"/>
        <circle id="Ellipse_873-2" data-name="Ellipse 873" cx="6.259" cy="6.259" r="6.259" transform="translate(4.92 4.853)"/>
      </g>
    </g>
    <g id="Group_48-2" data-name="Group 48" transform="translate(4724.697 232.503) rotate(-120)">
      <circle id="Ellipse_873-3" data-name="Ellipse 873" cx="11.112" cy="11.112" r="11.112" transform="translate(0.034 0)" fill="#e0e5ec"/>
      <rect id="Rectangle_54-4" data-name="Rectangle 54" width="7.408" height="80.474" rx="3.704" transform="translate(0 8.953)" fill="#e0e5ec"/>
      <rect id="Rectangle_54-5" data-name="Rectangle 54" width="7.408" height="114.824" rx="3.704" transform="translate(7.408 8.953)" fill="#e0e5ec"/>
      <rect id="Rectangle_54-6" data-name="Rectangle 54" width="7.408" height="61.574" rx="3.704" transform="translate(14.816 8.953)" fill="#e0e5ec"/>
      <circle id="Ellipse_873-4" data-name="Ellipse 873" cx="6.259" cy="6.259" r="6.259" transform="translate(4.92 4.795)"/>
    </g>
    <g id="Group_17" data-name="Group 17" transform="translate(4880.215 210.278) rotate(-120)">
      <g id="Group_48-3" data-name="Group 48">
        <circle id="Ellipse_873-5" data-name="Ellipse 873" cx="11.112" cy="11.112" r="11.112" transform="translate(0.068 0)" fill="#babec4"/>
        <rect id="Rectangle_54-7" data-name="Rectangle 54" width="7.408" height="80.474" rx="3.704" transform="translate(0 9.011)" fill="#babec4"/>
        <rect id="Rectangle_54-8" data-name="Rectangle 54" width="7.408" height="114.824" rx="3.704" transform="translate(7.408 9.011)" fill="#babec4"/>
        <rect id="Rectangle_54-9" data-name="Rectangle 54" width="7.408" height="61.574" rx="3.704" transform="translate(14.816 9.011)" fill="#babec4"/>
        <circle id="Ellipse_873-6" data-name="Ellipse 873" cx="6.259" cy="6.259" r="6.259" transform="translate(4.92 4.853)"/>
      </g>
    </g>
  </g>
</svg>
