<svg xmlns="http://www.w3.org/2000/svg" width="135.658" height="25.374" viewBox="0 0 135.658 25.374">
  <g id="Group_62" data-name="Group 62" transform="translate(688.003 -223.65)">
    <path id="Path_18" data-name="Path 18" d="M13.763,285.693c-.326-.341-.713-.164-1.1-.07-.7.17-.965-.073-.8-.791a5.06,5.06,0,0,0-.027-2.251c-.305-1.459-.51-2.94-.846-4.392a5.862,5.862,0,0,0-.792-1.744c-.344-.545-.747-.564-1.306-.22a1.92,1.92,0,0,0-1,1.545,17.979,17.979,0,0,1-1.411,4.879,7.169,7.169,0,0,0-.652,2.733c0,.252-.164.492-.352.355-.486-.354-.913-.061-1.39.026a1.045,1.045,0,0,1-.284-1c.354-1.4.68-2.816,1.087-4.2.239-.813.619-1.585.922-2.38.114-.3.183-.615.292-.916a1.2,1.2,0,0,1,.251-.473c.806-.744,1.631-1.467,2.444-2.2a1.709,1.709,0,0,1,1.781-.216,2.963,2.963,0,0,1,1.215,1.275,14.142,14.142,0,0,1,1.249,3.715c.082.38.183.756.305,1.259.339-.429.633-.763.884-1.126a5.337,5.337,0,0,1,1.281-1.418c1.2-.846,2.371-1.742,3.572-2.59a6.862,6.862,0,0,1,2.55-.988.939.939,0,0,1,.867.317,5.058,5.058,0,0,1,1.407,2.259,11.048,11.048,0,0,1,.58,3.523c-.03,1.078-.009,2.16.058,3.236a11.958,11.958,0,0,0,.362,1.7c.485-.263.9-.485,1.306-.71,1.225-.672,2.46-1.328,3.672-2.024.85-.488,1.645-1.073,2.505-1.541a11.614,11.614,0,0,0,2.4-1.725c.279-.261.514-.568.807-.9a1.369,1.369,0,0,0-.268-.059c-1.262.068-2.526.118-3.785.222a4.1,4.1,0,0,0-1.172.337c-.429.175-.5.161-.662-.353-.135-.032-.289-.06-.439-.1a.646.646,0,0,1-.437-.64c-.032-.284.189-.373.385-.508a2.877,2.877,0,0,1,1.746-.445c.688.011,1.377.031,2.066.038.158,0,.316-.045.475-.054.407-.022.815-.031,1.222-.054a3.443,3.443,0,0,0,.613-.073c1-.244,2-.49,3-.756.753-.2,1.495-.441,2.246-.648a1.122,1.122,0,0,1,.476-.018,1.776,1.776,0,0,0,1.255-.26.938.938,0,0,1,1.178.1,1.081,1.081,0,0,1,.114,1.106c-.11.226-.274.425-.4.642a11.559,11.559,0,0,1-2.377,3.017,1.063,1.063,0,0,0-.223.261,23.686,23.686,0,0,1-2.829,3.376c-.838.944-1.736,1.833-2.6,2.755-1.77,1.9-3.552,3.782-5.286,5.712a4.178,4.178,0,0,0-1.043,1.624c.444-.193.723-.116.843.371-.271.2-.552.423-.858.607a.646.646,0,0,1-.461.072,1.537,1.537,0,0,0-.93.007,1.03,1.03,0,0,1-.766-.31c-.089-.079-.017-.438.083-.61a7.55,7.55,0,0,1,.64-.808,39.835,39.835,0,0,1,2.631-3.1c1.612-1.667,3.14-3.416,4.714-5.121.577-.624,1.215-1.193,1.773-1.832.77-.881,1.5-1.8,2.231-2.714.652-.817,1.28-1.654,1.958-2.533a4.325,4.325,0,0,0-3.938,1.362,22.845,22.845,0,0,1-4.66,3.531c-.533.31-1.117.533-1.647.847-.985.583-1.949,1.2-2.921,1.808q-.966.6-1.933,1.2c-.271.169-.539.344-.811.512a.921.921,0,0,1-1.484-.373,4.2,4.2,0,0,1-.368-1.169A29.847,29.847,0,0,1,22.837,281a10.2,10.2,0,0,0-.873-4.018,1.339,1.339,0,0,0-2.081-.69,14.97,14.97,0,0,0-2.893,1.983,8.037,8.037,0,0,0-2.894,4.558,9.818,9.818,0,0,0-.061,2.26C14.037,285.338,14.074,285.553,13.763,285.693Z" transform="translate(-628.021 -45.901)" fill="#707070" fill-rule="evenodd"/>
    <path id="Path_19" data-name="Path 19" d="M-667.276,234.79c1.365.542,2.611,1.111,3.906,1.528a11.429,11.429,0,0,0,3.67.544c1.425-.021,2.851-.076,4.275-.138a2.053,2.053,0,0,0,1.571-.754,5.449,5.449,0,0,0,.437-.757.439.439,0,0,1,.5.4.989.989,0,0,1-.044.86,2.336,2.336,0,0,1-1.318.947,8.259,8.259,0,0,1-1.618.335c-1.533.1-3.071.193-4.606.181a16.973,16.973,0,0,1-3.132-.328,15.861,15.861,0,0,1-2.263-.789c-.063-.023-.118-.1-.178-.1a8.227,8.227,0,0,1-2.589-.887,1.4,1.4,0,0,0-1.184.066c-1.4.7-2.786,1.428-4.216,2.057-1.724.759-3.48,1.445-5.236,2.128-.661.257-1.359.42-2.04.626a1.428,1.428,0,0,0-.393.124,2.334,2.334,0,0,1-2.884-.256,12.139,12.139,0,0,1-1.862-1.739,3.685,3.685,0,0,1-.58-1.154c-.274-.7-.547-1.413-.754-2.139a4.1,4.1,0,0,1,.044-2.579,3.8,3.8,0,0,1,1.543-1.717,15.753,15.753,0,0,1,3.184-1.459,4.02,4.02,0,0,1,.671-.13,4.349,4.349,0,0,0,.8-.188,3.919,3.919,0,0,1,3.017,0c.448.169.924.266,1.367.444.486.2.952.444,1.422.679,1.253.625,2.509,1.246,3.753,1.888q1.038.536,2.042,1.137a2.135,2.135,0,0,0,2.151.077c1.082-.5,2.117-1.081,3.144-1.69.994-.589,1.83-1.4,2.822-1.952.893-.5,1.623-1.2,2.476-1.738a20.376,20.376,0,0,0,1.619-1.286c.684-.538,1.423-1.015,2.049-1.612a4.1,4.1,0,0,0,1.337-1.56c.081-.244.307-.269.516-.143.836.505,1.057,1.265.184,1.824a14.9,14.9,0,0,0-1.33,1.193c-.441.365-.92.684-1.381,1.025-.35.259-.7.52-1.045.781-.513.384-1.021.774-1.538,1.151q-.971.707-1.955,1.395c-.393.274-.79.544-1.2.786q-1.544.9-3.106,1.769c-.5.278-1.032.506-1.542.77A4.323,4.323,0,0,0-667.276,234.79Zm-3.455.272-.348-.283a14.681,14.681,0,0,0-2.542-1.36c-1.443-.764-2.941-1.423-4.393-2.17a3.335,3.335,0,0,0-1.981-.5,14.141,14.141,0,0,0-5.762,1.935.821.821,0,0,0-.317.347,4.93,4.93,0,0,0-.281,3.233,5.362,5.362,0,0,0,1.071,2.135,2.853,2.853,0,0,0,2.438,1.317,5.874,5.874,0,0,0,1.025-.09c.645-.145,1.286-.32,1.918-.516.48-.149.945-.35,1.416-.527.191-.072.381-.146.573-.214.318-.113.647-.2.953-.339s.55-.339.841-.471c1.191-.539,2.393-1.053,3.583-1.594C-671.961,235.7-671.4,235.4-670.732,235.061Z" fill="#707070" fill-rule="evenodd"/>
    <path id="Path_20" data-name="Path 20" d="M438.711,287.728c-.425-.513-.418-.571.113-.995l.379,1.15c.55-.113,1.1-.244,1.659-.337a23.757,23.757,0,0,1,2.862-.415c.949-.041,2.036-.17,2.741.619a8.621,8.621,0,0,1,2.2,2.852,7.1,7.1,0,0,1,.137,4.928,10.457,10.457,0,0,1-1.465,2.564,8.928,8.928,0,0,1-4.105,3.037,20.892,20.892,0,0,1-5.518,1.141c-1.031.071-2.057.207-3.088.289a12.443,12.443,0,0,1-4.1-.408,6.368,6.368,0,0,1-3.212-2.046,3.025,3.025,0,0,1-.713-2.3,6.233,6.233,0,0,1,2.062-4.016,17.226,17.226,0,0,1,4.391-3.179c1.04-.533,2.071-1.083,3.141-1.556.483-.213.984-.384,1.476-.577.263-.1.617-.091.6-.536C438.27,287.881,438.522,287.815,438.711,287.728Zm3.889,1.021-.048-.2a13.975,13.975,0,0,0-1.755.155,19.777,19.777,0,0,0-1.907.59,25.793,25.793,0,0,0-6.949,3.313,10.127,10.127,0,0,0-3.194,3.28,3.321,3.321,0,0,0,.133,3.932,3.264,3.264,0,0,0,1.678,1.1,12.661,12.661,0,0,0,4.758.581c1.557-.09,3.107-.289,4.659-.455a8.08,8.08,0,0,0,6.2-3.653,6,6,0,0,0,1.268-3.993c-.075-.706-.234-1.4-.356-2.1a1.7,1.7,0,0,0-1.562-1.509,3.819,3.819,0,0,0-1.161-.02,7.027,7.027,0,0,0-2.7.752,4.88,4.88,0,0,1-.571.241c-.191.088-.4.1-.472-.1a.579.579,0,0,1,.06-.492,3.76,3.76,0,0,1,.685-.572C441.768,289.305,442.187,289.031,442.6,288.749Z" transform="translate(-1011.874 -57.27)" fill="#707070" fill-rule="evenodd"/>
    <path id="Path_21" data-name="Path 21" d="M-210.912,276.915a1.8,1.8,0,0,0,.272-.1c.215-.156.417-.438.694-.107a.66.66,0,0,1-.1.978,5.936,5.936,0,0,1-.915.468,1.989,1.989,0,0,1-.4.1c-.857.19-1.2-.04-1.26-.933a4.477,4.477,0,0,1,.1-1.369,32.475,32.475,0,0,1,1.637-5.026c.516-1.2,1.023-2.4,1.477-3.629.5-1.341.739-2.74,1.19-4.084a7.351,7.351,0,0,0,.182-1.291c-.718-.019-1.333-.081-1.94-.04-1.236.082-2.468.233-3.7.333-1.558.126-3.117.245-4.677.332a5.452,5.452,0,0,1-1.348-.124c-.37-.073-.468-.348-.3-.685a.942.942,0,0,1,.922-.6,9.7,9.7,0,0,0,3.031-.511l.566.659c1.574-.112,3.222-.234,4.871-.343.528-.035,1.057-.039,1.586-.049a3.192,3.192,0,0,0,1.612-.273.433.433,0,0,1,.328-.059,5.051,5.051,0,0,0,2.453.053c2.087-.074,4.171-.233,6.258-.3a12.023,12.023,0,0,0,2.332-.064.963.963,0,0,1,.961.722.592.592,0,0,1-.568.657,4.769,4.769,0,0,1-1.57.045,14.241,14.241,0,0,0-1.481-.085c-.807-.067-1.6.063-2.393.034-.252-.009-.5-.008-.756,0-.939.045-1.878.1-2.817.142a2.63,2.63,0,0,1-.545-.054c-.6-.1-.755-.006-.92.612-.147.554-.254,1.12-.433,1.663-.408,1.241-.843,2.472-1.279,3.7-.314.886-.631,1.771-.975,2.646-.353.9-.774,1.766-1.1,2.67-.282.776-.475,1.583-.709,2.376-.078.263-.179.521-.232.789A5.506,5.506,0,0,0-210.912,276.915Z" transform="translate(-424.792 -33.22)" fill="#707070" fill-rule="evenodd"/>
    <path id="Path_22" data-name="Path 22" d="M760.044,417.688c-.352-.435-.87-.379-1.373-.4-.452-.019-.6-.251-.459-.68a1.054,1.054,0,0,1,1.492-.631c.124.06.248.123.366.194C760.7,416.552,760.71,417.178,760.044,417.688Z" transform="translate(-1312.887 -174.499)" fill="#707070" fill-rule="evenodd"/>
  </g>
</svg>
