<svg xmlns="http://www.w3.org/2000/svg" width="76.846" height="65.56" viewBox="0 0 76.846 65.56">
  <g id="Group_34" data-name="Group 34" transform="translate(-4401 -751.599)">
    <path id="Subtraction_14" data-name="Subtraction 14" d="M34.364,65.559a58.79,58.79,0,0,1-18.286-3.027A32.472,32.472,0,0,1,6.2,57.671,24.045,24.045,0,0,1,1.478,52.5L1.1,51.99c-1.383-1.859-1.21-3.17-.822-3.943A4.3,4.3,0,0,1,4.06,46.072c.286,0,.988.094,2.05.236A115.265,115.265,0,0,0,21.785,47.5c17.174,0,28.815-4.836,34.6-14.371,8.9-14.651,9.275-21.663,9.526-26.294a12.67,12.67,0,0,1,.831-4.773C67.377.694,68.213,0,69.233,0c1.939,0,4.085,2.669,4.353,4.284.367,2.194-1.094,13.386-1.109,13.5A26.954,26.954,0,0,1,76.615,28.9a24.259,24.259,0,0,1-1.1,11.271,31.477,31.477,0,0,1-8.774,12.744,47.391,47.391,0,0,1-16.444,10,48.027,48.027,0,0,1-15.938,2.641Z" transform="translate(4400.998 751.599)" fill="#fff"/>
    <g id="Group_8" data-name="Group 8" transform="translate(5159.945 -3344.052) rotate(89)">
      <circle id="Ellipse_12" data-name="Ellipse 12" cx="2" cy="2" r="2" transform="translate(4123 763)"/>
      <circle id="Ellipse_13" data-name="Ellipse 13" cx="1" cy="1" r="1" transform="translate(4117 759)"/>
    </g>
  </g>
</svg>
