<svg xmlns="http://www.w3.org/2000/svg" width="64" height="71" viewBox="0 0 64 71">
  <g id="Group_36" data-name="Group 36" transform="translate(-4589.129 -750.162)">
    <rect id="Rectangle_9" data-name="Rectangle 9" width="64" height="16" rx="6.261" transform="translate(4589.129 789.162)" fill="#fff"/>
    <path id="Rectangle_9-2" data-name="Rectangle 9" d="M3,0H57a3,3,0,0,1,3,3V3a9,9,0,0,1-9,9H9A9,9,0,0,1,0,3V3A3,3,0,0,1,3,0Z" transform="translate(4591.129 809.162)" fill="#fff"/>
    <g id="Group_11" data-name="Group 11" transform="translate(777 13.162)">
      <path id="Rectangle_9-3" data-name="Rectangle 9" d="M3,0H57a3,3,0,0,1,3,3V5A30,30,0,0,1,30,35h0A30,30,0,0,1,0,5V3A3,3,0,0,1,3,0Z" transform="translate(3874 772) rotate(180)" fill="#fff"/>
      <circle id="Ellipse_9" data-name="Ellipse 9" cx="2" cy="2" r="2" transform="translate(3860 751)"/>
      <circle id="Ellipse_10" data-name="Ellipse 10" cx="1" cy="1" r="1" transform="translate(3854 747)"/>
    </g>
  </g>
</svg>
