<svg xmlns="http://www.w3.org/2000/svg" width="69.001" height="77" viewBox="0 0 69.001 77">
  <g id="Group_32" data-name="Group 32" transform="translate(-4266 -740.158)">
    <path id="Subtraction_5" data-name="Subtraction 5" d="M51.751,77H14.115L8.98,52.56H56.885L51.751,77ZM61.99,48.56H7.022A8.643,8.643,0,0,1,8.643,31.427h2.87a8.644,8.644,0,0,1,4.972-15.715h3.973A17.267,17.267,0,0,1,37.637,0h7.841V15.714h3.9a8.644,8.644,0,0,1,4.973,15.715h6.007A8.644,8.644,0,0,1,61.99,48.56Z" transform="translate(4266 740.158)" fill="#fff"/>
    <g id="Group_6" data-name="Group 6" transform="translate(190 1.159)">
      <circle id="Ellipse_12" data-name="Ellipse 12" cx="2" cy="2" r="2" transform="translate(4123 763)"/>
      <circle id="Ellipse_13" data-name="Ellipse 13" cx="1" cy="1" r="1" transform="translate(4117 759)"/>
    </g>
  </g>
</svg>
